Coordinates
version=1
nRows=29
nColumns=24
inDegrees=yes

Units are S.I. units (second, meters, Newtons, ...)
Angles are in degrees.

endheader
time	pelvis_tilt	pelvis_list	pelvis_rotation	pelvis_tx	pelvis_ty	pelvis_tz	hip_flexion_r	hip_adduction_r	hip_rotation_r	knee_angle_r	ankle_angle_r	subtalar_angle_r	mtp_angle_r	hip_flexion_l	hip_adduction_l	hip_rotation_l	knee_angle_l	ankle_angle_l	subtalar_angle_l	mtp_angle_l	lumbar_extension	lumbar_bending	lumbar_rotation
      0.57066667	     -3.24327935	      1.06619068	      3.05980831	     -0.51729654	      1.06511599	      0.30846189	     16.16137561	      1.64780097	     -2.06757587	    -20.96248193	     10.21932673	     -5.06370511	      5.42137375	     21.33980958	     -4.14421377	     -5.86383158	    -71.14641735	      6.23307664	      2.54853601	      3.33859501	    -10.62087656	      1.82217697	      0.77809819
      0.57483333	     -3.21996200	      1.19764939	      3.00041127	     -0.51233033	      1.06630352	      0.30864423	     15.64272001	      1.53865720	     -2.03151291	    -20.56352994	     10.28201143	     -4.96764120	      5.41376368	     21.77825770	     -4.00484375	     -6.01069456	    -70.68625569	      6.47084195	      2.76738040	      3.30885495	    -10.68575877	      1.64699410	      0.90147599
      0.57900000	     -3.19575703	      1.31127738	      2.92944811	     -0.50738399	      1.06742069	      0.30883216	     15.12661651	      1.44964593	     -1.99068687	    -20.16286156	     10.34648781	     -4.86756153	      5.40730583	     22.20779676	     -3.89227332	     -6.17062071	    -70.18861402	      6.71667176	      3.03469970	      3.28486141	    -10.75238189	      1.49261873	      1.04635674
      0.58316667	     -3.15895549	      1.44125303	      2.84297639	     -0.50245283	      1.06853278	      0.30901403	     14.60165235	      1.34508282	     -1.91927598	    -19.77128085	     10.42417491	     -4.76344341	      5.40033790	     22.60003343	     -3.76074168	     -6.34300239	    -69.62252832	      6.95246444	      3.32997948	      3.25809112	    -10.85675039	      1.33746124	      1.23199639
      0.58733333	     -3.10957869	      1.53798673	      2.74775346	     -0.49751145	      1.06960820	      0.30920234	     14.05811044	      1.27750450	     -1.85664181	    -19.35932313	     10.49864351	     -4.67439589	      5.39118599	     22.96936793	     -3.67607720	     -6.52802131	    -69.01939250	      7.19442786	      3.64796361	      3.22590400	    -10.95474972	      1.19434677	      1.45901406
      0.59150000	     -3.09481879	      1.66474030	      2.63354551	     -0.49258065	      1.07059717	      0.30939965	     13.56693464	      1.17609601	     -1.77073077	    -18.97637400	     10.54333782	     -4.57941381	      5.38591979	     23.35041658	     -3.55664913	     -6.73317648	    -68.34614776	      7.42045484	      3.97404613	      3.20993591	    -11.01786445	      1.03841317	      1.60013556
      0.59566667	     -3.03539449	      1.77131982	      2.51485139	     -0.48764979	      1.07159437	      0.30960837	     13.02280475	      1.09841486	     -1.69135992	    -18.57939249	     10.62440913	     -4.48246929	      5.38024587	     23.67185418	     -3.47046681	     -6.94918300	    -67.63402968	      7.65084127	      4.31110803	      3.18947479	    -11.13038996	      0.88001797	      1.82895457
      0.59983333	     -3.02084250	      1.87543271	      2.38354076	     -0.48271511	      1.07246744	      0.30980754	     12.53694202	      1.02092636	     -1.59514918	    -18.19960177	     10.68743156	     -4.39495997	      5.37560713	     24.02468537	     -3.38544217	     -7.17593100	    -66.87013145	      7.87109262	      4.65358214	      3.17654031	    -11.18326339	      0.73596798	      2.01544064
      0.60400000	     -2.98867310	      1.98546167	      2.24007780	     -0.47780800	      1.07332621	      0.31001061	     12.03983456	      0.93604418	     -1.49374614	    -17.82780523	     10.72667345	     -4.29698306	      5.37314131	     24.33969006	     -3.29520352	     -7.41171540	    -66.04865536	      8.07662253	      4.98185671	      3.17160046	    -11.26525928	      0.59726371	      2.16078237
      0.60816667	     -2.94126162	      2.06575826	      2.10017613	     -0.47288860	      1.07414069	      0.31021700	     11.51837730	      0.88387039	     -1.38897855	    -17.43939448	     10.80861370	     -4.21630336	      5.36948767	     24.63007686	     -3.24249854	     -7.64335217	    -65.19767681	      8.28481896	      5.30508767	      3.16304457	    -11.36492000	      0.46830768	      2.42543519
      0.61233333	     -2.92772001	      2.15512359	      1.94624670	     -0.46796696	      1.07484383	      0.31042194	     11.04785962	      0.81908351	     -1.27705308	    -17.07804584	     10.87843579	     -4.13550349	      5.36682383	     24.93598190	     -3.17961893	     -7.89012788	    -64.29023775	      8.47307277	      5.61190000	      3.15830177	    -11.41243251	      0.33945329	      2.62057770
      0.61650000	     -2.89642796	      2.24046781	      1.79001345	     -0.46306177	      1.07553899	      0.31061638	     10.55900117	      0.75678317	     -1.15953370	    -16.71371620	     10.94037259	     -4.05042169	      5.36381342	     25.20633740	     -3.11775601	     -8.13152482	    -63.33214331	      8.64629168	      5.88796160	      3.15358470	    -11.49470239	      0.21624628	      2.84208237
      0.62066667	     -2.91164200	      2.32047540	      1.62665880	     -0.45814740	      1.07608125	      0.31080527	     10.13489120	      0.69566677	     -1.04651335	    -16.37854899	     10.99503441	     -3.95995573	      5.36305184	     25.51208802	     -3.06234170	     -8.38154694	    -62.33194982	      8.79768982	      6.14228577	      3.15368914	    -11.50605003	      0.11189989	      2.96403015
      0.62483333	     -2.90332881	      2.39715780	      1.46136762	     -0.45323488	      1.07661030	      0.31100177	      9.68470268	      0.63852201	     -0.92714645	    -16.04112693	     11.07814706	     -3.87611012	      5.36230229	     25.77452877	     -3.01166467	     -8.63142425	    -61.28388505	      8.93977580	      6.38251631	      3.15388979	    -11.54917306	      0.00271110	      3.15378281
      0.62900000	     -2.86842316	      2.44281380	      1.30638907	     -0.44833969	      1.07711645	      0.31116775	      9.19959597	      0.61280271	     -0.81235988	    -15.68750038	     11.17072302	     -3.80162544	      5.35797902	     26.00216585	     -2.98690931	     -8.85590187	    -60.20704068	      9.07123075	      6.58217351	      3.15238462	    -11.63176983	     -0.08797186	      3.45213480
      0.63316667	     -2.89850829	      2.50329450	      1.14129535	     -0.44341852	      1.07746493	      0.31133247	      8.80306041	      0.56595301	     -0.69789941	    -15.37340703	     11.23866025	     -3.71946858	      5.35651967	     26.27580313	     -2.94504743	     -9.09272186	    -59.07255430	      9.16276297	      6.74392529	      3.15217885	    -11.61782923	     -0.16771077	      3.56493114
      0.63733333	     -2.88551282	      2.53675789	      0.98444388	     -0.43851437	      1.07780850	      0.31148950	      8.35411985	      0.54854852	     -0.58880165	    -15.04542902	     11.34927645	     -3.65152040	      5.35167029	     26.49403386	     -2.92875135	     -9.31127474	    -57.90924391	      9.25290289	      6.88661858	      3.15244460	    -11.66483100	     -0.24288145	      3.83730794
      0.64150000	     -2.92222896	      2.57268913	      0.82714737	     -0.43360055	      1.07801185	      0.31162810	      7.96993751	      0.52398047	     -0.47389918	    -14.74159723	     11.44409028	     -3.57346620	      5.34597015	     26.74777471	     -2.90207170	     -9.51848289	    -56.69734027	      9.30714992	      6.98630274	      3.15310494	    -11.65368073	     -0.30483978	      4.03521443
      0.64566667	     -2.95169188	      2.60929537	      0.66812258	     -0.42868984	      1.07817035	      0.31176028	      7.58738731	      0.49528343	     -0.37226147	    -14.45637895	     11.53486020	     -3.49074205	      5.34310362	     26.97443409	     -2.87266969	     -9.72449888	    -55.43840684	      9.33364006	      7.05942377	      3.15302993	    -11.63828934	     -0.35491190	      4.15298470
      0.64983333	     -2.97356702	      2.61574771	      0.52619193	     -0.42376717	      1.07827137	      0.31186475	      7.18704686	      0.49802434	     -0.27731438	    -14.15499048	     11.65617911	     -3.42103921	      5.33634698	     27.18453738	     -2.86541949	     -9.89907548	    -54.15354942	      9.34563189	      7.09008956	      3.15566673	    -11.64124477	     -0.38926065	      4.37798290
      0.65400000	     -3.03606650	      2.62520936	      0.38023533	     -0.41884343	      1.07826061	      0.31196725	      6.84394879	      0.49532315	     -0.17457166	    -13.88077888	     11.74928078	     -3.34438794	      5.33266394	     27.41777075	     -2.85036032	    -10.06675497	    -52.81799028	      9.32076056	      7.11148597	      3.15598312	    -11.59122070	     -0.40805123	      4.49114817
      0.65816667	     -3.06732514	      2.61918141	      0.24657258	     -0.41392729	      1.07823661	      0.31203578	      6.46403084	      0.50600981	     -0.08640287	    -13.60097076	     11.86488710	     -3.27696829	      5.32758869	     27.60410448	     -2.84119895	    -10.20949831	    -51.44704882	      9.27302129	      7.08974427	      3.15750438	    -11.58083213	     -0.41508747	      4.64324074
      0.66233333	     -3.11413246	      2.60099390	      0.12104208	     -0.40900235	      1.07812223	      0.31209045	      6.10373142	      0.52790516	     -0.00476842	    -13.32964030	     11.98414054	     -3.21212738	      5.32220542	     27.79241874	     -2.83753282	    -10.33082419	    -50.04021473	      9.20443638	      7.04817836	      3.15989964	    -11.55189910	     -0.40228300	      4.78966247
      0.66650000	     -3.16939901	      2.58013634	      0.00151714	     -0.40406270	      1.07794890	      0.31212412	      5.75548049	      0.55001964	      0.07032272	    -13.06819085	     12.11095955	     -3.14441264	      5.31616900	     27.96951020	     -2.82608165	    -10.42956105	    -48.58793875	      9.10691336	      6.97572847	      3.16327761	    -11.50897733	     -0.38677260	      4.92982793
      0.67066667	     -3.20766975	      2.54089564	     -0.10573974	     -0.39913245	      1.07773915	      0.31212708	      5.38984103	      0.58947060	      0.13151404	    -12.81041589	     12.24676173	     -3.07467225	      5.30806057	     28.11461323	     -2.82331950	    -10.50039764	    -47.10132791	      8.99255705	      6.88531446	      3.16966651	    -11.48305354	     -0.34941779	      5.06766763
      0.67483333	     -3.26333727	      2.48878679	     -0.20235348	     -0.39418656	      1.07744953	      0.31211267	      5.04032378	      0.64145233	      0.19042274	    -12.55166738	     12.37483762	     -3.01011414	      5.30013122	     28.26439158	     -2.82587022	    -10.54720701	    -45.58377369	      8.85173452	      6.79464032	      3.17581450	    -11.44745450	     -0.29286268	      5.17744114
      0.67900000	     -3.33026822	      2.42994587	     -0.28749798	     -0.38922703	      1.07706952	      0.31206578	      4.70566959	      0.69803412	      0.23194915	    -12.30362633	     12.52308481	     -2.94625484	      5.28960703	     28.41012547	     -2.82304749	    -10.56490034	    -44.03258459	      8.69783716	      6.66452774	      3.18607952	    -11.38991562	     -0.22699679	      5.28868997
      0.68316667	     -3.39581640	      2.34944345	     -0.36280694	     -0.38427303	      1.07664454	      0.31200086	      4.37115435	      0.77763841	      0.27469782	    -12.06072925	     12.65821035	     -2.88541389	      5.27902532	     28.54019925	     -2.83413205	    -10.55168951	    -42.45091678	      8.52246073	      6.55951860	      3.19608707	    -11.33881196	     -0.13552719	      5.37279439
      0.68733333	     -3.45858492	      2.26629299	     -0.42575857	     -0.37929971	      1.07617816	      0.31191051	      4.03162090	      0.85776568	      0.30428325	    -11.82137130	     12.80276482	     -2.82676601	      5.26755118	     28.64675402	     -2.83487899	    -10.50512958	    -40.83043106	      8.33281741	      6.43618383	      3.20753367	    -11.28157567	     -0.03819155	      5.44610751
